<?xml version="1.0" standalone="no"?><!DOCTYPE svg PUBLIC "-//W3C//DTD SVG 1.1//EN" "http://www.w3.org/Graphics/SVG/1.1/DTD/svg11.dtd"><svg t="1570780659774" class="icon" viewBox="0 0 1097 1024" version="1.1" xmlns="http://www.w3.org/2000/svg" p-id="5146" xmlns:xlink="http://www.w3.org/1999/xlink" width="214.2578125" height="200"><defs><style type="text/css"></style></defs><path d="M310.857143 841.142857a128 128 0 1 1 128-128A128 128 0 0 1 310.857143 841.142857z m0-182.857143a54.857143 54.857143 0 1 0 54.857143 54.857143A54.857143 54.857143 0 0 0 310.857143 658.285714z" p-id="5147" fill="#ffffff"></path><path d="M877.714286 1024H219.428571a219.428571 219.428571 0 0 1-219.428571-219.428571V219.428571a219.428571 219.428571 0 0 1 219.428571-219.428571h658.285715a219.428571 219.428571 0 0 1 219.428571 219.428571v585.142858a219.428571 219.428571 0 0 1-219.428571 219.428571zM219.428571 73.142857a146.285714 146.285714 0 0 0-146.285714 146.285714v585.142858a146.285714 146.285714 0 0 0 146.285714 146.285714h658.285715a146.285714 146.285714 0 0 0 146.285714-146.285714V219.428571a146.285714 146.285714 0 0 0-146.285714-146.285714z" p-id="5148" fill="#ffffff"></path><path d="M548.571429 694.857143m35.84 0l294.034285 0q35.84 0 35.84 35.84l0 1.462857q0 35.84-35.84 35.84l-294.034285 0q-35.84 0-35.84-35.84l0-1.462857q0-35.84 35.84-35.84Z" p-id="5149" fill="#ffffff"></path><path d="M548.571429 329.142857m35.84 0l294.034285 0q35.84 0 35.84 35.84l0 1.462857q0 35.84-35.84 35.84l-294.034285 0q-35.84 0-35.84-35.84l0-1.462857q0-35.84 35.84-35.84Z" p-id="5150" fill="#ffffff"></path><path d="M288.914286 438.857143h-2.56a36.571429 36.571429 0 0 1-26.697143-14.628572L190.171429 332.068571a36.571429 36.571429 0 1 1 58.514285-43.885714L292.571429 347.062857l120.685714-117.394286a36.571429 36.571429 0 1 1 51.2 52.662858l-149.942857 146.285714a36.571429 36.571429 0 0 1-25.6 10.24z" p-id="5151" fill="#ffffff"></path></svg>