<?xml version="1.0" standalone="no"?><!DOCTYPE svg PUBLIC "-//W3C//DTD SVG 1.1//EN" "http://www.w3.org/Graphics/SVG/1.1/DTD/svg11.dtd"><svg t="1570780223401" class="icon" viewBox="0 0 1024 1024" version="1.1" xmlns="http://www.w3.org/2000/svg" p-id="1315" xmlns:xlink="http://www.w3.org/1999/xlink" width="200" height="200"><defs><style type="text/css"></style></defs><path d="M163.72736 629.46304c-15.93344 0-31.03744-3.0208-45.34272-9.08288a115.78368 115.78368 0 0 1-37.09952-24.70912 115.90656 115.90656 0 0 1-24.71936-37.10976 114.96448 114.96448 0 0 1-9.0624-45.32224c0-15.9232 3.00032-30.91456 9.0624-44.91264a116.89984 116.89984 0 0 1 24.71936-36.67968 115.33312 115.33312 0 0 1 37.09952-24.7296 115.13856 115.13856 0 0 1 54.40512-8.6528c2.75456 0.26624 5.49888 0.39936 8.26368 0.39936l160.73728-194.52928a55.53152 55.53152 0 0 1-5.38624-18.13504 168.97024 168.97024 0 0 1-1.23904-20.59264c0-15.94368 3.03104-31.05792 9.09312-45.33248a114.7904 114.7904 0 0 1 24.70912-37.08928 115.88608 115.88608 0 0 1 37.09952-24.75008c14.29504-6.03136 29.40928-9.0624 45.35296-9.0624s31.05792 3.0208 45.33248 9.0624a115.77344 115.77344 0 0 1 37.09952 24.75008 115.6096 115.6096 0 0 1 24.7296 37.08928 115.4048 115.4048 0 0 1 9.0624 45.33248c0 13.17888-2.048 25.68192-6.1952 37.49888a140.2368 140.2368 0 0 1-16.87552 33.39264l139.30496 311.58272 79.95392-142.62272a140.17536 140.17536 0 0 1-14.82752-30.90432 110.0288 110.0288 0 0 1-5.75488-35.85024c0-15.94368 3.0208-31.04768 9.0624-45.33248a115.46624 115.46624 0 0 1 24.71936-37.09952 115.6096 115.6096 0 0 1 37.08928-24.7296 115.02592 115.02592 0 0 1 45.3632-9.07264c15.90272 0 31.0272 3.0208 45.312 9.07264a120.80128 120.80128 0 0 1 37.51936 24.7296 112.2304 112.2304 0 0 1 25.1392 37.09952c6.0416 14.29504 9.04192 29.39904 9.04192 45.33248 0 16.4864-3.00032 31.86688-9.04192 46.16192a116.85888 116.85888 0 0 1-25.1392 37.49888 117.20704 117.20704 0 0 1-37.51936 25.14944 115.38432 115.38432 0 0 1-45.312 9.0624h-19.79392l-78.31552 142.62272a124.7232 124.7232 0 0 1 28.84608 38.69696c7.12704 14.848 10.71104 31.08864 10.71104 48.66048 0 15.9232-3.0208 31.03744-9.05216 45.32224a117.61664 117.61664 0 0 1-62.22848 62.65856c-14.0288 6.03136-29.26592 9.07264-45.7728 9.07264-16.45568 0-31.73376-3.04128-45.73184-9.07264a113.05984 113.05984 0 0 1-36.68992-25.1392 121.06752 121.06752 0 0 1-24.76032-37.51936 115.52768 115.52768 0 0 1-9.04192-45.32224c0-17.57184 3.4304-33.81248 10.2912-48.66048a119.77728 119.77728 0 0 1 28.42624-38.69696L464.61952 281.62048c-5.50912 1.08544-9.89184 1.64864-13.19936 1.64864a93.83936 93.83936 0 0 1-25.1392-3.29728 146.4832 146.4832 0 0 1-22.67136-8.2432L262.63552 449.76128c5.50912 9.33888 9.89184 19.37408 13.21984 30.09536 3.26656 10.7008 4.90496 21.83168 4.90496 33.37216 0 15.93344-3.01056 31.04768-9.0624 45.32224a111.69792 111.69792 0 0 1-25.1392 37.10976 120.99584 120.99584 0 0 1-37.09952 24.70912c-13.99808 6.07232-29.24544 9.09312-45.73184 9.09312zM47.5136 862.72h928.95232v112.10752H47.5136V862.72z m0 0" fill="#ffffff" p-id="1316"></path></svg>