<?xml version="1.0" standalone="no"?><!DOCTYPE svg PUBLIC "-//W3C//DTD SVG 1.1//EN" "http://www.w3.org/Graphics/SVG/1.1/DTD/svg11.dtd"><svg t="1570783413266" class="icon" viewBox="0 0 1024 1024" version="1.1" xmlns="http://www.w3.org/2000/svg" p-id="9519" xmlns:xlink="http://www.w3.org/1999/xlink" width="200" height="200"><defs><style type="text/css"></style></defs><path d="M512 512c141.4 0 256-114.6 256-256S653.4 0 512 0 256 114.6 256 256s114.6 256 256 256z m191.6 65.2L608 960l-64-272 64-112h-192l64 112-64 272-95.6-382.8C177.8 584 64 700.6 64 844.8V928c0 53 43 96 96 96h704c53 0 96-43 96-96v-83.2c0-144.2-113.8-260.8-256.4-267.6z" fill="#ffffff" p-id="9520"></path></svg>